<svg width="160" height="31" viewBox="0 0 160 31" fill="none" xmlns="http://www.w3.org/2000/svg">
<g clip-path="url(#clip0_1_516)">
<path fill-rule="evenodd" clip-rule="evenodd" d="M0.579834 16.4866C0.579834 19.7331 2.93816 22.4328 6.02254 22.9802V18.2639H4.38973V16.4502H6.02254V14.9989C6.02254 13.3664 7.07462 12.4598 8.56265 12.4598C9.034 12.4598 9.54239 12.5322 10.0137 12.6045V14.2735H9.17932C8.38087 14.2735 8.19963 14.6724 8.19963 15.1806V16.4502H9.94126L9.65118 18.2639H8.19963V22.9802C11.284 22.4328 13.6423 19.7336 13.6423 16.4866C13.6423 12.875 10.7033 9.92017 7.11108 9.92017C3.5189 9.92017 0.579834 12.875 0.579834 16.4866Z" fill="white" fill-opacity="0.9"/>
</g>
<g clip-path="url(#clip1_1_516)">
<path d="M43.6405 13.6559C42.3551 13.6559 41.3062 14.7049 41.3062 15.9902C41.3062 17.2756 42.3551 18.3246 43.6405 18.3246C44.9258 18.3246 45.9747 17.2756 45.9747 15.9902C45.9747 14.7049 44.9258 13.6559 43.6405 13.6559ZM50.6415 15.9902C50.6415 15.0236 50.6503 14.0657 50.596 13.1008C50.5418 11.98 50.286 10.9854 49.4666 10.1658C48.6452 9.34449 47.6523 9.09057 46.5316 9.03629C45.565 8.982 44.6071 8.99076 43.6422 8.99076C42.6756 8.99076 41.7177 8.982 40.7528 9.03629C39.6321 9.09057 38.6374 9.34625 37.8179 10.1658C36.9966 10.9871 36.7427 11.98 36.6884 13.1008C36.6341 14.0674 36.6429 15.0253 36.6429 15.9902C36.6429 16.9551 36.6341 17.9148 36.6884 18.8797C36.7427 20.0004 36.9983 20.9951 37.8179 21.8147C38.6392 22.6359 39.6321 22.8899 40.7528 22.9441C41.7194 22.9985 42.6773 22.9898 43.6422 22.9898C44.6088 22.9898 45.5667 22.9985 46.5316 22.9441C47.6523 22.8899 48.647 22.6342 49.4666 21.8147C50.2878 20.9934 50.5418 20.0004 50.596 18.8797C50.652 17.9148 50.6415 16.9569 50.6415 15.9902ZM43.6405 19.5819C41.6529 19.5819 40.0488 17.9778 40.0488 15.9902C40.0488 14.0026 41.6529 12.3986 43.6405 12.3986C45.628 12.3986 47.2321 14.0026 47.2321 15.9902C47.2321 17.9778 45.628 19.5819 43.6405 19.5819ZM47.3792 13.0903C46.9151 13.0903 46.5404 12.7155 46.5404 12.2515C46.5404 11.7874 46.9151 11.4126 47.3792 11.4126C47.8432 11.4126 48.218 11.7874 48.218 12.2515C48.2181 12.3617 48.1965 12.4708 48.1544 12.5726C48.1123 12.6745 48.0505 12.767 47.9726 12.8449C47.8947 12.9228 47.8022 12.9846 47.7003 13.0267C47.5985 13.0688 47.4893 13.0904 47.3792 13.0903Z" fill="white" fill-opacity="0.9"/>
</g>
<g clip-path="url(#clip2_1_516)">
<path d="M81.8112 15.8685L80.1735 15.1043C80.0306 15.0379 79.9132 15.1123 79.9132 15.2705V16.7099C79.9132 16.8682 80.0306 16.9425 80.1735 16.8762L81.8105 16.112C81.9541 16.0449 81.9541 15.9355 81.8112 15.8685ZM80.6423 8.99023C76.7763 8.99023 73.6423 12.1242 73.6423 15.9902C73.6423 19.8562 76.7763 22.9902 80.6423 22.9902C84.5083 22.9902 87.6423 19.8562 87.6423 15.9902C87.6423 12.1242 84.5083 8.99023 80.6423 8.99023ZM80.6423 18.834C77.0592 18.834 76.9965 18.511 76.9965 15.9902C76.9965 13.4695 77.0592 13.1465 80.6423 13.1465C84.2254 13.1465 84.2881 13.4695 84.2881 15.9902C84.2881 18.511 84.2254 18.834 80.6423 18.834Z" fill="white" fill-opacity="0.9"/>
</g>
<g clip-path="url(#clip3_1_516)">
<path fill-rule="evenodd" clip-rule="evenodd" d="M110.642 10.1103C110.642 9.81321 110.76 9.52833 110.97 9.31828C111.18 9.10824 111.465 8.99024 111.762 8.99024H122.927C123.075 8.98999 123.22 9.01879 123.356 9.07498C123.492 9.13117 123.616 9.21364 123.72 9.31767C123.824 9.42171 123.907 9.54527 123.963 9.68127C124.02 9.81727 124.049 9.96305 124.049 10.1103V21.2752C124.049 21.4225 124.02 21.5683 123.964 21.7044C123.907 21.8404 123.825 21.9641 123.721 22.0682C123.617 22.1724 123.493 22.255 123.357 22.3113C123.221 22.3676 123.075 22.3966 122.928 22.3965H111.762C111.615 22.3965 111.47 22.3675 111.334 22.3112C111.198 22.2548 111.074 22.1723 110.97 22.0682C110.866 21.9641 110.784 21.8406 110.727 21.7046C110.671 21.5687 110.642 21.423 110.642 21.2758V10.1103ZM115.949 14.1017H117.764V15.0133C118.026 14.4892 118.696 14.0176 119.704 14.0176C121.635 14.0176 122.092 15.0614 122.092 16.9767V20.5245H120.138V17.413C120.138 16.3222 119.876 15.7067 119.211 15.7067C118.288 15.7067 117.904 16.3704 117.904 17.413V20.5245H115.949V14.1017ZM112.597 20.441H114.552V14.0176H112.597V20.441ZM114.832 11.9225C114.835 12.0899 114.806 12.2563 114.744 12.4121C114.683 12.5678 114.591 12.7096 114.474 12.8293C114.357 12.949 114.217 13.0441 114.062 13.109C113.908 13.1739 113.742 13.2073 113.575 13.2073C113.408 13.2073 113.242 13.1739 113.087 13.109C112.933 13.0441 112.793 12.949 112.676 12.8293C112.559 12.7096 112.467 12.5678 112.406 12.4121C112.344 12.2563 112.314 12.0899 112.318 11.9225C112.325 11.594 112.461 11.2813 112.696 11.0515C112.931 10.8218 113.246 10.6931 113.575 10.6931C113.904 10.6931 114.219 10.8218 114.454 11.0515C114.689 11.2813 114.825 11.594 114.832 11.9225Z" fill="white" fill-opacity="0.9"/>
</g>
<g clip-path="url(#clip4_1_516)">
<path d="M158.351 12.1755C158.251 12.1235 158.153 12.0666 158.058 12.0048C157.782 11.8225 157.53 11.6077 157.305 11.3651C156.743 10.7225 156.534 10.0706 156.456 9.61419H156.459C156.395 9.23535 156.422 8.99023 156.426 8.99023H153.867V18.8811C153.867 19.0139 153.867 19.1451 153.862 19.2748C153.862 19.2909 153.86 19.3058 153.859 19.3232C153.859 19.3303 153.859 19.3378 153.858 19.3452V19.3508C153.831 19.7057 153.717 20.0485 153.526 20.3491C153.336 20.6497 153.074 20.8989 152.765 21.0747C152.442 21.2582 152.077 21.3544 151.706 21.354C150.514 21.354 149.548 20.3822 149.548 19.182C149.548 17.9819 150.514 17.0101 151.706 17.0101C151.932 17.0099 152.156 17.0454 152.371 17.1153L152.374 14.5109C151.723 14.4268 151.061 14.4785 150.431 14.6629C149.8 14.8472 149.215 15.1602 148.712 15.582C148.271 15.965 147.9 16.4221 147.617 16.9326C147.509 17.1187 147.101 17.8668 147.052 19.0809C147.021 19.77 147.228 20.4839 147.326 20.779V20.7852C147.388 20.959 147.629 21.5519 148.021 22.0518C148.337 22.4527 148.71 22.8049 149.129 23.097V23.0908L149.135 23.097C150.374 23.9385 151.747 23.8833 151.747 23.8833C151.985 23.8736 152.781 23.8833 153.685 23.4548C154.688 22.9798 155.259 22.2721 155.259 22.2721C155.624 21.8491 155.914 21.3672 156.117 20.847C156.348 20.2385 156.426 19.5088 156.426 19.2171V13.9698C156.457 13.9884 156.87 14.2618 156.87 14.2618C156.87 14.2618 157.466 14.6434 158.395 14.8919C159.061 15.0688 159.959 15.106 159.959 15.106V12.5667C159.645 12.6009 159.006 12.5016 158.351 12.1755Z" fill="white" fill-opacity="0.9"/>
</g>
<defs>
<clipPath id="clip0_1_516">
<rect width="13.0625" height="13.06" fill="white" transform="translate(0.579834 9.92017)"/>
</clipPath>
<clipPath id="clip1_1_516">
<rect width="14" height="14" fill="white" transform="translate(36.6423 8.99023)"/>
</clipPath>
<clipPath id="clip2_1_516">
<rect width="14" height="14" fill="white" transform="translate(73.6423 8.99023)"/>
</clipPath>
<clipPath id="clip3_1_516">
<rect width="13.4062" height="13.4062" fill="white" transform="translate(110.642 8.99023)"/>
</clipPath>
<clipPath id="clip4_1_516">
<rect width="12.9107" height="14.8938" fill="white" transform="translate(147.049 8.99023)"/>
</clipPath>
</defs>
</svg>
